<mxfile host="app.diagrams.net" modified="2023-05-10T05:20:15.466Z" agent="Mozilla/5.0 (Windows NT 10.0; Win64; x64) AppleWebKit/537.36 (KHTML, like Gecko) Chrome/112.0.0.0 Safari/537.36" etag="X4m9urF5cDf7cqP1ja20" version="21.2.2" type="device">
  <diagram id="oTTbxQ63e_KoFN6K49Fd" name="第 1 页">
    <mxGraphModel dx="1556" dy="1570" grid="1" gridSize="10" guides="1" tooltips="1" connect="1" arrows="1" fold="1" page="1" pageScale="1" pageWidth="1169" pageHeight="827" math="0" shadow="0">
      <root>
        <mxCell id="0" />
        <mxCell id="1" parent="0" />
        <mxCell id="ntA_5ywgpYa8TE1KBMGx-119" value="" style="rounded=1;whiteSpace=wrap;html=1;fontFamily=Helvetica;fontSize=11;arcSize=4;dashed=1;" parent="1" vertex="1">
          <mxGeometry x="110" y="-400" width="590" height="520" as="geometry" />
        </mxCell>
        <mxCell id="n3hUSVVW-1aV4-CjMUfo-21" value="" style="rounded=1;whiteSpace=wrap;html=1;arcSize=6;fillColor=#E1D5E7;strokeColor=#56517e;" parent="1" vertex="1">
          <mxGeometry x="250" y="-390" width="240" height="330" as="geometry" />
        </mxCell>
        <mxCell id="lEssfRRWRtHHituVbiwM-2" value="[CLS]" style="shape=loopLimit;whiteSpace=wrap;html=1;fillColor=#f8cecc;strokeColor=#b85450;fontSize=14;fontStyle=1;size=12;" parent="1" vertex="1">
          <mxGeometry x="136" y="126" width="50" height="34" as="geometry" />
        </mxCell>
        <mxCell id="lEssfRRWRtHHituVbiwM-14" value="" style="rounded=1;whiteSpace=wrap;html=1;fillColor=#e1d5e7;strokeColor=#9673a6;" parent="1" vertex="1">
          <mxGeometry x="120" y="30" width="570" height="77.25" as="geometry" />
        </mxCell>
        <mxCell id="lEssfRRWRtHHituVbiwM-162" value="&lt;b&gt;&lt;font style=&quot;font-size: 18px;&quot;&gt;···&amp;nbsp;&lt;/font&gt;&lt;/b&gt;&lt;b style=&quot;border-color: var(--border-color);&quot;&gt;&lt;font style=&quot;border-color: var(--border-color); font-size: 18px;&quot;&gt;···&lt;/font&gt;&lt;/b&gt;" style="text;html=1;strokeColor=none;fillColor=none;align=center;verticalAlign=middle;whiteSpace=wrap;rounded=0;" parent="1" vertex="1">
          <mxGeometry x="254" y="53.5" width="60" height="30" as="geometry" />
        </mxCell>
        <mxCell id="lEssfRRWRtHHituVbiwM-180" value="&lt;b&gt;&lt;font style=&quot;font-size: 14px;&quot;&gt;Input Embedding&lt;/font&gt;&lt;/b&gt;" style="text;html=1;strokeColor=none;fillColor=none;align=center;verticalAlign=middle;whiteSpace=wrap;rounded=0;fontColor=#000000;" parent="1" vertex="1">
          <mxGeometry x="115.5" y="26" width="140" height="30" as="geometry" />
        </mxCell>
        <mxCell id="lEssfRRWRtHHituVbiwM-186" value="&lt;b&gt;&lt;font style=&quot;font-size: 18px;&quot;&gt;···&amp;nbsp;&lt;/font&gt;&lt;/b&gt;&lt;b style=&quot;border-color: var(--border-color);&quot;&gt;&lt;font style=&quot;border-color: var(--border-color); font-size: 18px;&quot;&gt;···&lt;/font&gt;&lt;/b&gt;" style="text;html=1;strokeColor=none;fillColor=none;align=center;verticalAlign=middle;whiteSpace=wrap;rounded=0;" parent="1" vertex="1">
          <mxGeometry x="502" y="58" width="60" height="30" as="geometry" />
        </mxCell>
        <mxCell id="ntA_5ywgpYa8TE1KBMGx-32" value="" style="endArrow=classic;html=1;rounded=0;labelBackgroundColor=default;strokeColor=#666666;fontFamily=Helvetica;fontSize=11;fontColor=default;shape=connector;exitX=0.5;exitY=0;exitDx=0;exitDy=0;entryX=0.5;entryY=1;entryDx=0;entryDy=0;" parent="1" source="lEssfRRWRtHHituVbiwM-2" edge="1">
          <mxGeometry width="50" height="50" relative="1" as="geometry">
            <mxPoint x="250" y="120" as="sourcePoint" />
            <mxPoint x="161" y="89" as="targetPoint" />
          </mxGeometry>
        </mxCell>
        <mxCell id="ntA_5ywgpYa8TE1KBMGx-34" value="" style="endArrow=classic;html=1;rounded=0;labelBackgroundColor=default;strokeColor=#666666;fontFamily=Helvetica;fontSize=11;fontColor=default;shape=connector;entryX=0.5;entryY=1;entryDx=0;entryDy=0;exitX=0.206;exitY=-0.006;exitDx=0;exitDy=0;exitPerimeter=0;" parent="1" source="ntA_5ywgpYa8TE1KBMGx-87" edge="1">
          <mxGeometry width="50" height="50" relative="1" as="geometry">
            <mxPoint x="267.88" y="126" as="sourcePoint" />
            <mxPoint x="268" y="88" as="targetPoint" />
          </mxGeometry>
        </mxCell>
        <mxCell id="ntA_5ywgpYa8TE1KBMGx-35" value="" style="endArrow=classic;html=1;rounded=0;labelBackgroundColor=default;strokeColor=#666666;fontFamily=Helvetica;fontSize=11;fontColor=default;shape=connector;entryX=0.5;entryY=1;entryDx=0;entryDy=0;exitX=0.777;exitY=0.019;exitDx=0;exitDy=0;exitPerimeter=0;" parent="1" source="ntA_5ywgpYa8TE1KBMGx-87" edge="1">
          <mxGeometry width="50" height="50" relative="1" as="geometry">
            <mxPoint x="301.88" y="126" as="sourcePoint" />
            <mxPoint x="302" y="89.00000000000023" as="targetPoint" />
          </mxGeometry>
        </mxCell>
        <mxCell id="ntA_5ywgpYa8TE1KBMGx-36" value="" style="endArrow=classic;html=1;rounded=0;labelBackgroundColor=default;strokeColor=#666666;fontFamily=Helvetica;fontSize=11;fontColor=default;shape=connector;entryX=0.5;entryY=1;entryDx=0;entryDy=0;exitX=0.502;exitY=0.031;exitDx=0;exitDy=0;exitPerimeter=0;" parent="1" source="ntA_5ywgpYa8TE1KBMGx-88" target="ntA_5ywgpYa8TE1KBMGx-109" edge="1">
          <mxGeometry width="50" height="50" relative="1" as="geometry">
            <mxPoint x="338.39699999999993" y="125.72000000000003" as="sourcePoint" />
            <mxPoint x="339" y="89" as="targetPoint" />
          </mxGeometry>
        </mxCell>
        <mxCell id="ntA_5ywgpYa8TE1KBMGx-37" value="" style="endArrow=classic;html=1;rounded=0;labelBackgroundColor=default;strokeColor=#666666;fontFamily=Helvetica;fontSize=11;fontColor=default;shape=connector;exitX=0.5;exitY=0;exitDx=0;exitDy=0;" parent="1" source="ntA_5ywgpYa8TE1KBMGx-111" target="ntA_5ywgpYa8TE1KBMGx-112" edge="1">
          <mxGeometry width="50" height="50" relative="1" as="geometry">
            <mxPoint x="409.5" y="126" as="sourcePoint" />
            <mxPoint x="409.5" y="88" as="targetPoint" />
          </mxGeometry>
        </mxCell>
        <mxCell id="ntA_5ywgpYa8TE1KBMGx-46" value="" style="endArrow=classic;html=1;rounded=0;labelBackgroundColor=default;strokeColor=#666666;fontFamily=Helvetica;fontSize=11;fontColor=default;shape=connector;entryX=0.5;entryY=1;entryDx=0;entryDy=0;exitX=0.461;exitY=0.009;exitDx=0;exitDy=0;exitPerimeter=0;" parent="1" target="ntA_5ywgpYa8TE1KBMGx-117" edge="1">
          <mxGeometry width="50" height="50" relative="1" as="geometry">
            <mxPoint x="587.2059999999999" y="126.30600000000004" as="sourcePoint" />
            <mxPoint x="587.0000000000001" y="90" as="targetPoint" />
          </mxGeometry>
        </mxCell>
        <mxCell id="ntA_5ywgpYa8TE1KBMGx-47" value="" style="endArrow=classic;html=1;rounded=0;labelBackgroundColor=default;strokeColor=#666666;fontFamily=Helvetica;fontSize=11;fontColor=default;shape=connector;entryX=0.5;entryY=1;entryDx=0;entryDy=0;exitX=0.5;exitY=0;exitDx=0;exitDy=0;" parent="1" source="ntA_5ywgpYa8TE1KBMGx-113" target="ntA_5ywgpYa8TE1KBMGx-118" edge="1">
          <mxGeometry width="50" height="50" relative="1" as="geometry">
            <mxPoint x="650" y="120" as="sourcePoint" />
            <mxPoint x="650" y="89" as="targetPoint" />
          </mxGeometry>
        </mxCell>
        <mxCell id="ntA_5ywgpYa8TE1KBMGx-72" value="" style="endArrow=classic;html=1;rounded=0;labelBackgroundColor=default;strokeColor=#666666;fontFamily=Helvetica;fontSize=11;fontColor=default;shape=connector;entryX=0.5;entryY=1;entryDx=0;entryDy=0;exitX=0.211;exitY=0.027;exitDx=0;exitDy=0;exitPerimeter=0;" parent="1" source="ntA_5ywgpYa8TE1KBMGx-92" edge="1">
          <mxGeometry width="50" height="50" relative="1" as="geometry">
            <mxPoint x="512.88" y="126" as="sourcePoint" />
            <mxPoint x="513" y="89.00000000000023" as="targetPoint" />
          </mxGeometry>
        </mxCell>
        <mxCell id="ntA_5ywgpYa8TE1KBMGx-73" value="" style="endArrow=classic;html=1;rounded=0;labelBackgroundColor=default;strokeColor=#666666;fontFamily=Helvetica;fontSize=11;fontColor=default;shape=connector;entryX=0.5;entryY=1;entryDx=0;entryDy=0;exitX=0.843;exitY=0.032;exitDx=0;exitDy=0;exitPerimeter=0;" parent="1" source="ntA_5ywgpYa8TE1KBMGx-92" edge="1">
          <mxGeometry width="50" height="50" relative="1" as="geometry">
            <mxPoint x="550.88" y="126" as="sourcePoint" />
            <mxPoint x="551" y="89.00000000000023" as="targetPoint" />
          </mxGeometry>
        </mxCell>
        <mxCell id="ntA_5ywgpYa8TE1KBMGx-75" value="" style="endArrow=classic;html=1;rounded=0;labelBackgroundColor=default;strokeColor=#666666;fontFamily=Helvetica;fontSize=11;fontColor=default;shape=connector;entryX=0.5;entryY=1;entryDx=0;entryDy=0;exitX=0.5;exitY=0;exitDx=0;exitDy=0;" parent="1" source="ntA_5ywgpYa8TE1KBMGx-90" target="ntA_5ywgpYa8TE1KBMGx-114" edge="1">
          <mxGeometry width="50" height="50" relative="1" as="geometry">
            <mxPoint x="475" y="130" as="sourcePoint" />
            <mxPoint x="475" y="89" as="targetPoint" />
          </mxGeometry>
        </mxCell>
        <mxCell id="ntA_5ywgpYa8TE1KBMGx-87" value="&lt;b&gt;&lt;font style=&quot;font-size: 18px;&quot;&gt;···&amp;nbsp;&lt;/font&gt;&lt;/b&gt;&lt;b style=&quot;border-color: var(--border-color);&quot;&gt;&lt;font style=&quot;border-color: var(--border-color); font-size: 18px;&quot;&gt;···&lt;/font&gt;&lt;/b&gt;" style="text;html=1;strokeColor=none;fillColor=none;align=center;verticalAlign=middle;whiteSpace=wrap;rounded=0;" parent="1" vertex="1">
          <mxGeometry x="255.5" y="133" width="60" height="30" as="geometry" />
        </mxCell>
        <mxCell id="ntA_5ywgpYa8TE1KBMGx-88" value="&lt;b&gt;W&lt;sub&gt;n&lt;/sub&gt;&lt;/b&gt;" style="rounded=0;whiteSpace=wrap;html=1;fontFamily=Helvetica;fontSize=11;fillColor=#dae8fc;strokeColor=#6c8ebf;" parent="1" vertex="1">
          <mxGeometry x="315.5" y="126" width="46" height="34" as="geometry" />
        </mxCell>
        <mxCell id="ntA_5ywgpYa8TE1KBMGx-89" value="&lt;b&gt;W&lt;sub&gt;1&lt;/sub&gt;&lt;/b&gt;" style="rounded=0;whiteSpace=wrap;html=1;fontFamily=Helvetica;fontSize=11;fillColor=#dae8fc;strokeColor=#6c8ebf;" parent="1" vertex="1">
          <mxGeometry x="208" y="126" width="46" height="34" as="geometry" />
        </mxCell>
        <mxCell id="ntA_5ywgpYa8TE1KBMGx-90" value="&lt;b&gt;C&lt;sub&gt;1&lt;/sub&gt;&lt;/b&gt;" style="rounded=0;whiteSpace=wrap;html=1;fontFamily=Helvetica;fontSize=11;fillColor=#d5e8d4;strokeColor=#82b366;" parent="1" vertex="1">
          <mxGeometry x="452" y="126" width="46" height="34" as="geometry" />
        </mxCell>
        <mxCell id="ntA_5ywgpYa8TE1KBMGx-91" value="&lt;b&gt;C&lt;sub&gt;m&lt;/sub&gt;&lt;/b&gt;" style="rounded=0;whiteSpace=wrap;html=1;fontFamily=Helvetica;fontSize=11;fillColor=#d5e8d4;strokeColor=#82b366;" parent="1" vertex="1">
          <mxGeometry x="564" y="126" width="46" height="34" as="geometry" />
        </mxCell>
        <mxCell id="ntA_5ywgpYa8TE1KBMGx-92" value="&lt;b&gt;&lt;font style=&quot;font-size: 18px;&quot;&gt;···&amp;nbsp;&lt;/font&gt;&lt;/b&gt;&lt;b style=&quot;border-color: var(--border-color);&quot;&gt;&lt;font style=&quot;border-color: var(--border-color); font-size: 18px;&quot;&gt;···&lt;/font&gt;&lt;/b&gt;" style="text;html=1;strokeColor=none;fillColor=none;align=center;verticalAlign=middle;whiteSpace=wrap;rounded=0;" parent="1" vertex="1">
          <mxGeometry x="501" y="132" width="60" height="30" as="geometry" />
        </mxCell>
        <mxCell id="ntA_5ywgpYa8TE1KBMGx-104" value="" style="edgeStyle=none;shape=connector;rounded=0;orthogonalLoop=1;jettySize=auto;html=1;labelBackgroundColor=default;strokeColor=#000000;fontFamily=Helvetica;fontSize=11;fontColor=default;endArrow=none;entryX=1;entryY=0.5;entryDx=0;entryDy=0;" parent="1" source="ntA_5ywgpYa8TE1KBMGx-93" target="ntA_5ywgpYa8TE1KBMGx-98" edge="1">
          <mxGeometry relative="1" as="geometry">
            <mxPoint x="330" y="-30" as="targetPoint" />
          </mxGeometry>
        </mxCell>
        <mxCell id="ntA_5ywgpYa8TE1KBMGx-93" value="&lt;pre&gt;&lt;font style=&quot;font-size: 68px;&quot;&gt;+&lt;/font&gt;&lt;/pre&gt;" style="ellipse;whiteSpace=wrap;html=1;aspect=fixed;fontFamily=Helvetica;fontSize=11;fontColor=default;" parent="1" vertex="1">
          <mxGeometry x="361.5" y="-47" width="50" height="50" as="geometry" />
        </mxCell>
        <mxCell id="ntA_5ywgpYa8TE1KBMGx-98" value="" style="ellipse;whiteSpace=wrap;html=1;aspect=fixed;fontFamily=Helvetica;fontSize=11;fontColor=default;" parent="1" vertex="1">
          <mxGeometry x="270" y="-53" width="62" height="62" as="geometry" />
        </mxCell>
        <mxCell id="ntA_5ywgpYa8TE1KBMGx-101" value="" style="curved=1;endArrow=none;html=1;rounded=0;labelBackgroundColor=default;strokeColor=#000000;fontFamily=Helvetica;fontSize=11;fontColor=default;shape=connector;endFill=0;entryX=1;entryY=0.5;entryDx=0;entryDy=0;exitX=0;exitY=0.5;exitDx=0;exitDy=0;" parent="1" source="ntA_5ywgpYa8TE1KBMGx-98" target="ntA_5ywgpYa8TE1KBMGx-98" edge="1">
          <mxGeometry width="50" height="50" relative="1" as="geometry">
            <mxPoint x="300" y="-60" as="sourcePoint" />
            <mxPoint x="350" y="-110" as="targetPoint" />
            <Array as="points">
              <mxPoint x="280" y="-40" />
              <mxPoint x="290" y="-40" />
              <mxPoint x="310" />
            </Array>
          </mxGeometry>
        </mxCell>
        <mxCell id="ntA_5ywgpYa8TE1KBMGx-105" value="" style="endArrow=classic;html=1;rounded=0;labelBackgroundColor=default;strokeColor=#666666;fontFamily=Helvetica;fontSize=11;fontColor=default;shape=connector;entryX=0.5;entryY=1;entryDx=0;entryDy=0;exitX=0.467;exitY=0.004;exitDx=0;exitDy=0;exitPerimeter=0;" parent="1" source="lEssfRRWRtHHituVbiwM-14" target="ntA_5ywgpYa8TE1KBMGx-93" edge="1">
          <mxGeometry width="50" height="50" relative="1" as="geometry">
            <mxPoint x="401" y="30" as="sourcePoint" />
            <mxPoint x="388" y="-11.999999999999773" as="targetPoint" />
          </mxGeometry>
        </mxCell>
        <mxCell id="ntA_5ywgpYa8TE1KBMGx-106" value="" style="endArrow=classic;html=1;rounded=0;labelBackgroundColor=default;strokeColor=#666666;fontFamily=Helvetica;fontSize=11;fontColor=default;shape=connector;entryX=0.5;entryY=1;entryDx=0;entryDy=0;exitX=0.5;exitY=0;exitDx=0;exitDy=0;" parent="1" source="ntA_5ywgpYa8TE1KBMGx-93" target="n3hUSVVW-1aV4-CjMUfo-3" edge="1">
          <mxGeometry width="50" height="50" relative="1" as="geometry">
            <mxPoint x="386" y="-50" as="sourcePoint" />
            <mxPoint x="387" y="-80" as="targetPoint" />
          </mxGeometry>
        </mxCell>
        <mxCell id="ntA_5ywgpYa8TE1KBMGx-108" value="" style="endArrow=classic;html=1;rounded=0;labelBackgroundColor=default;strokeColor=#666666;fontFamily=Helvetica;fontSize=11;fontColor=default;shape=connector;entryX=0.5;entryY=1;entryDx=0;entryDy=0;exitX=0.5;exitY=0;exitDx=0;exitDy=0;" parent="1" source="ntA_5ywgpYa8TE1KBMGx-89" target="ntA_5ywgpYa8TE1KBMGx-107" edge="1">
          <mxGeometry width="50" height="50" relative="1" as="geometry">
            <mxPoint x="229" y="133" as="sourcePoint" />
            <mxPoint x="229" y="89" as="targetPoint" />
          </mxGeometry>
        </mxCell>
        <mxCell id="ntA_5ywgpYa8TE1KBMGx-107" value="&lt;b&gt;E&lt;sub&gt;1&lt;/sub&gt;&lt;/b&gt;" style="rounded=0;whiteSpace=wrap;html=1;fontFamily=Helvetica;fontSize=11;fillColor=#dae8fc;strokeColor=#6c8ebf;" parent="1" vertex="1">
          <mxGeometry x="208" y="53.5" width="46" height="34" as="geometry" />
        </mxCell>
        <mxCell id="ntA_5ywgpYa8TE1KBMGx-109" value="&lt;b&gt;W&lt;sub&gt;n&lt;/sub&gt;&lt;/b&gt;" style="rounded=0;whiteSpace=wrap;html=1;fontFamily=Helvetica;fontSize=11;fillColor=#dae8fc;strokeColor=#6c8ebf;" parent="1" vertex="1">
          <mxGeometry x="316" y="54" width="46" height="34" as="geometry" />
        </mxCell>
        <mxCell id="ntA_5ywgpYa8TE1KBMGx-110" value="&lt;b&gt;E&lt;sub&gt;[CLS]&lt;/sub&gt;&lt;/b&gt;" style="rounded=0;whiteSpace=wrap;html=1;fontFamily=Helvetica;fontSize=11;fillColor=#f8cecc;strokeColor=#b85450;" parent="1" vertex="1">
          <mxGeometry x="138" y="54" width="46" height="34" as="geometry" />
        </mxCell>
        <mxCell id="ntA_5ywgpYa8TE1KBMGx-111" value="[SEP]" style="shape=loopLimit;whiteSpace=wrap;html=1;fillColor=#f8cecc;strokeColor=#b85450;fontSize=14;fontStyle=1;size=12;" parent="1" vertex="1">
          <mxGeometry x="381.5" y="126" width="50" height="34" as="geometry" />
        </mxCell>
        <mxCell id="ntA_5ywgpYa8TE1KBMGx-112" value="&lt;b style=&quot;border-color: var(--border-color); font-size: 12px;&quot;&gt;E&lt;sub style=&quot;border-color: var(--border-color);&quot;&gt;[SEP]&lt;/sub&gt;&lt;/b&gt;" style="rounded=0;whiteSpace=wrap;html=1;fontFamily=Helvetica;fontSize=11;fillColor=#f8cecc;strokeColor=#b85450;" parent="1" vertex="1">
          <mxGeometry x="383.5" y="53.5" width="46" height="34" as="geometry" />
        </mxCell>
        <mxCell id="ntA_5ywgpYa8TE1KBMGx-113" value="[EOS]" style="shape=loopLimit;whiteSpace=wrap;html=1;fillColor=#f8cecc;strokeColor=#b85450;fontSize=14;fontStyle=1;size=12;" parent="1" vertex="1">
          <mxGeometry x="625" y="126" width="50" height="34" as="geometry" />
        </mxCell>
        <mxCell id="ntA_5ywgpYa8TE1KBMGx-114" value="&lt;b style=&quot;border-color: var(--border-color); font-size: 12px;&quot;&gt;E&#39;&lt;sub style=&quot;border-color: var(--border-color);&quot;&gt;1&lt;/sub&gt;&lt;/b&gt;" style="rounded=0;whiteSpace=wrap;html=1;fontFamily=Helvetica;fontSize=11;fillColor=#d5e8d4;strokeColor=#82b366;" parent="1" vertex="1">
          <mxGeometry x="452" y="54" width="46" height="34" as="geometry" />
        </mxCell>
        <mxCell id="ntA_5ywgpYa8TE1KBMGx-117" value="&lt;b style=&quot;border-color: var(--border-color); font-size: 12px;&quot;&gt;E&#39;m&lt;/b&gt;" style="rounded=0;whiteSpace=wrap;html=1;fontFamily=Helvetica;fontSize=11;fillColor=#d5e8d4;strokeColor=#82b366;" parent="1" vertex="1">
          <mxGeometry x="564" y="56" width="46" height="34" as="geometry" />
        </mxCell>
        <mxCell id="ntA_5ywgpYa8TE1KBMGx-118" value="&lt;b style=&quot;border-color: var(--border-color); font-size: 12px;&quot;&gt;E&lt;sub style=&quot;border-color: var(--border-color);&quot;&gt;[EOS]&lt;/sub&gt;&lt;/b&gt;" style="rounded=0;whiteSpace=wrap;html=1;fontFamily=Helvetica;fontSize=11;fillColor=#f8cecc;strokeColor=#b85450;" parent="1" vertex="1">
          <mxGeometry x="627" y="56" width="46" height="34" as="geometry" />
        </mxCell>
        <mxCell id="ntA_5ywgpYa8TE1KBMGx-121" value="&lt;b style=&quot;border-color: var(--border-color); font-size: 12px;&quot;&gt;&lt;font style=&quot;border-color: var(--border-color); font-size: 17px;&quot;&gt;12 × Transformer&lt;/font&gt;&lt;/b&gt;" style="text;html=1;strokeColor=none;fillColor=none;align=center;verticalAlign=middle;whiteSpace=wrap;rounded=0;fontSize=11;fontFamily=Helvetica;fontColor=#007FFFF;" parent="1" vertex="1">
          <mxGeometry x="250" y="-404" width="150" height="55" as="geometry" />
        </mxCell>
        <mxCell id="ntA_5ywgpYa8TE1KBMGx-123" value="&lt;b&gt;&lt;font style=&quot;font-size: 14px;&quot;&gt;Positional &lt;br&gt;Encoding&lt;/font&gt;&lt;/b&gt;" style="text;html=1;strokeColor=none;fillColor=none;align=center;verticalAlign=middle;whiteSpace=wrap;rounded=0;fontColor=#000000;" parent="1" vertex="1">
          <mxGeometry x="150" y="-30" width="140" height="30" as="geometry" />
        </mxCell>
        <mxCell id="n3hUSVVW-1aV4-CjMUfo-3" value="&lt;font style=&quot;font-size: 18px;&quot;&gt;&lt;b&gt;Multi-Head&lt;br&gt;Attention&lt;/b&gt;&lt;/font&gt;" style="rounded=1;whiteSpace=wrap;html=1;fillColor=#ffe6cc;strokeColor=#d79b00;" parent="1" vertex="1">
          <mxGeometry x="326.5" y="-170" width="120" height="60" as="geometry" />
        </mxCell>
        <mxCell id="n3hUSVVW-1aV4-CjMUfo-5" value="" style="curved=1;endArrow=classic;html=1;rounded=0;entryX=0.894;entryY=1.003;entryDx=0;entryDy=0;entryPerimeter=0;strokeColor=#666666;" parent="1" edge="1">
          <mxGeometry width="50" height="50" relative="1" as="geometry">
            <mxPoint x="387" y="-90" as="sourcePoint" />
            <mxPoint x="430.78" y="-109.81999999999994" as="targetPoint" />
            <Array as="points">
              <mxPoint x="427" y="-90" />
            </Array>
          </mxGeometry>
        </mxCell>
        <mxCell id="n3hUSVVW-1aV4-CjMUfo-6" value="" style="curved=1;endArrow=classic;html=1;rounded=0;entryX=0.894;entryY=1.003;entryDx=0;entryDy=0;entryPerimeter=0;strokeColor=#666666;" parent="1" edge="1">
          <mxGeometry width="50" height="50" relative="1" as="geometry">
            <mxPoint x="386.78" y="-90.18000000000046" as="sourcePoint" />
            <mxPoint x="343" y="-110.0000000000004" as="targetPoint" />
            <Array as="points">
              <mxPoint x="346.78" y="-90.18000000000046" />
            </Array>
          </mxGeometry>
        </mxCell>
        <mxCell id="n3hUSVVW-1aV4-CjMUfo-9" value="&lt;font style=&quot;font-size: 18px;&quot;&gt;&lt;b&gt;Add &amp;amp; Norm&lt;/b&gt;&lt;/font&gt;" style="rounded=1;whiteSpace=wrap;html=1;fillColor=#fff2cc;strokeColor=#d6b656;" parent="1" vertex="1">
          <mxGeometry x="326.5" y="-220" width="120" height="30" as="geometry" />
        </mxCell>
        <mxCell id="n3hUSVVW-1aV4-CjMUfo-10" value="&lt;font style=&quot;font-size: 18px;&quot;&gt;&lt;b&gt;Add &amp;amp; Norm&lt;/b&gt;&lt;/font&gt;" style="rounded=1;whiteSpace=wrap;html=1;fillColor=#fff2cc;strokeColor=#d6b656;" parent="1" vertex="1">
          <mxGeometry x="326.5" y="-365.5" width="120" height="30" as="geometry" />
        </mxCell>
        <mxCell id="n3hUSVVW-1aV4-CjMUfo-15" value="&lt;font style=&quot;font-size: 18px;&quot;&gt;&lt;b&gt;Feed&lt;br&gt;Forward&lt;/b&gt;&lt;/font&gt;" style="rounded=1;whiteSpace=wrap;html=1;fillColor=#99FFFF;strokeColor=#10739e;" parent="1" vertex="1">
          <mxGeometry x="326.5" y="-310" width="120" height="60" as="geometry" />
        </mxCell>
        <mxCell id="n3hUSVVW-1aV4-CjMUfo-16" value="" style="endArrow=classic;html=1;rounded=0;strokeColor=#666666;exitX=0.5;exitY=0;exitDx=0;exitDy=0;entryX=0.5;entryY=1;entryDx=0;entryDy=0;" parent="1" source="n3hUSVVW-1aV4-CjMUfo-9" target="n3hUSVVW-1aV4-CjMUfo-15" edge="1">
          <mxGeometry width="50" height="50" relative="1" as="geometry">
            <mxPoint x="260" y="-210" as="sourcePoint" />
            <mxPoint x="310" y="-260" as="targetPoint" />
          </mxGeometry>
        </mxCell>
        <mxCell id="n3hUSVVW-1aV4-CjMUfo-17" value="" style="endArrow=classic;html=1;rounded=0;strokeColor=#666666;exitX=0.5;exitY=0;exitDx=0;exitDy=0;entryX=0.5;entryY=1;entryDx=0;entryDy=0;" parent="1" source="n3hUSVVW-1aV4-CjMUfo-3" target="n3hUSVVW-1aV4-CjMUfo-9" edge="1">
          <mxGeometry width="50" height="50" relative="1" as="geometry">
            <mxPoint x="250" y="-200" as="sourcePoint" />
            <mxPoint x="300" y="-250" as="targetPoint" />
          </mxGeometry>
        </mxCell>
        <mxCell id="n3hUSVVW-1aV4-CjMUfo-18" value="" style="endArrow=classic;html=1;rounded=0;strokeColor=#666666;exitX=0.5;exitY=0;exitDx=0;exitDy=0;entryX=0.5;entryY=1;entryDx=0;entryDy=0;" parent="1" source="n3hUSVVW-1aV4-CjMUfo-15" target="n3hUSVVW-1aV4-CjMUfo-10" edge="1">
          <mxGeometry width="50" height="50" relative="1" as="geometry">
            <mxPoint x="250" y="-200" as="sourcePoint" />
            <mxPoint x="300" y="-250" as="targetPoint" />
          </mxGeometry>
        </mxCell>
        <mxCell id="n3hUSVVW-1aV4-CjMUfo-19" value="" style="endArrow=classic;html=1;rounded=0;strokeColor=#666666;entryX=0;entryY=0.5;entryDx=0;entryDy=0;" parent="1" target="n3hUSVVW-1aV4-CjMUfo-9" edge="1">
          <mxGeometry width="50" height="50" relative="1" as="geometry">
            <mxPoint x="387" y="-80" as="sourcePoint" />
            <mxPoint x="323.5" y="-205" as="targetPoint" />
            <Array as="points">
              <mxPoint x="257" y="-80" />
              <mxPoint x="257" y="-205" />
            </Array>
          </mxGeometry>
        </mxCell>
        <mxCell id="n3hUSVVW-1aV4-CjMUfo-20" value="" style="endArrow=classic;html=1;rounded=0;strokeColor=#666666;entryX=0;entryY=0.5;entryDx=0;entryDy=0;" parent="1" target="n3hUSVVW-1aV4-CjMUfo-10" edge="1">
          <mxGeometry width="50" height="50" relative="1" as="geometry">
            <mxPoint x="387" y="-230" as="sourcePoint" />
            <mxPoint x="323.5" y="-350.5" as="targetPoint" />
            <Array as="points">
              <mxPoint x="257" y="-230" />
              <mxPoint x="257" y="-350" />
            </Array>
          </mxGeometry>
        </mxCell>
        <mxCell id="n3hUSVVW-1aV4-CjMUfo-23" value="&lt;b&gt;T&lt;sub&gt;[CLS]&lt;/sub&gt;&lt;/b&gt;" style="rounded=0;whiteSpace=wrap;html=1;fontFamily=Helvetica;fontSize=11;fillColor=#f8cecc;strokeColor=#b85450;" parent="1" vertex="1">
          <mxGeometry x="137" y="-465" width="46" height="34" as="geometry" />
        </mxCell>
        <mxCell id="n3hUSVVW-1aV4-CjMUfo-24" value="" style="endArrow=classic;html=1;rounded=0;entryX=0.5;entryY=1;entryDx=0;entryDy=0;strokeColor=#666666;" parent="1" target="n3hUSVVW-1aV4-CjMUfo-23" edge="1">
          <mxGeometry width="50" height="50" relative="1" as="geometry">
            <mxPoint x="160" y="-400" as="sourcePoint" />
            <mxPoint x="159.99999999999994" y="-435" as="targetPoint" />
          </mxGeometry>
        </mxCell>
        <mxCell id="n3hUSVVW-1aV4-CjMUfo-25" value="&lt;b&gt;T&lt;sub style=&quot;border-color: var(--border-color);&quot;&gt;1&lt;/sub&gt;&lt;/b&gt;" style="rounded=0;whiteSpace=wrap;html=1;fontFamily=Helvetica;fontSize=11;fillColor=#dae8fc;strokeColor=#6c8ebf;" parent="1" vertex="1">
          <mxGeometry x="209.5" y="-465" width="46" height="34" as="geometry" />
        </mxCell>
        <mxCell id="n3hUSVVW-1aV4-CjMUfo-26" value="&lt;b&gt;T&lt;sub style=&quot;border-color: var(--border-color);&quot;&gt;n&lt;/sub&gt;&lt;/b&gt;" style="rounded=0;whiteSpace=wrap;html=1;fontFamily=Helvetica;fontSize=11;fillColor=#dae8fc;strokeColor=#6c8ebf;" parent="1" vertex="1">
          <mxGeometry x="315" y="-465" width="46" height="34" as="geometry" />
        </mxCell>
        <mxCell id="n3hUSVVW-1aV4-CjMUfo-27" value="" style="endArrow=classic;html=1;rounded=0;exitX=0.207;exitY=0;exitDx=0;exitDy=0;exitPerimeter=0;strokeColor=#666666;entryX=0.5;entryY=1;entryDx=0;entryDy=0;" parent="1" source="ntA_5ywgpYa8TE1KBMGx-119" target="n3hUSVVW-1aV4-CjMUfo-25" edge="1">
          <mxGeometry width="50" height="50" relative="1" as="geometry">
            <mxPoint x="232" y="-400" as="sourcePoint" />
            <mxPoint x="233" y="-430" as="targetPoint" />
          </mxGeometry>
        </mxCell>
        <mxCell id="n3hUSVVW-1aV4-CjMUfo-29" value="&lt;b&gt;&lt;font style=&quot;font-size: 18px;&quot;&gt;···&amp;nbsp;&lt;/font&gt;&lt;/b&gt;&lt;b style=&quot;border-color: var(--border-color);&quot;&gt;&lt;font style=&quot;border-color: var(--border-color); font-size: 18px;&quot;&gt;···&lt;/font&gt;&lt;/b&gt;" style="text;html=1;strokeColor=none;fillColor=none;align=center;verticalAlign=middle;whiteSpace=wrap;rounded=0;" parent="1" vertex="1">
          <mxGeometry x="255.5" y="-465" width="60" height="30" as="geometry" />
        </mxCell>
        <mxCell id="n3hUSVVW-1aV4-CjMUfo-31" value="&lt;b style=&quot;border-color: var(--border-color); font-size: 12px;&quot;&gt;T&lt;sub style=&quot;border-color: var(--border-color);&quot;&gt;[SEP]&lt;/sub&gt;&lt;/b&gt;" style="rounded=0;whiteSpace=wrap;html=1;fontFamily=Helvetica;fontSize=11;fillColor=#f8cecc;strokeColor=#b85450;" parent="1" vertex="1">
          <mxGeometry x="385.5" y="-465" width="46" height="34" as="geometry" />
        </mxCell>
        <mxCell id="n3hUSVVW-1aV4-CjMUfo-32" value="&lt;b style=&quot;border-color: var(--border-color); font-size: 12px;&quot;&gt;T&#39;&lt;sub style=&quot;border-color: var(--border-color);&quot;&gt;1&lt;/sub&gt;&lt;/b&gt;" style="rounded=0;whiteSpace=wrap;html=1;fontFamily=Helvetica;fontSize=11;fillColor=#d5e8d4;strokeColor=#82b366;" parent="1" vertex="1">
          <mxGeometry x="452" y="-465" width="46" height="34" as="geometry" />
        </mxCell>
        <mxCell id="n3hUSVVW-1aV4-CjMUfo-33" value="&lt;b style=&quot;border-color: var(--border-color); font-size: 12px;&quot;&gt;T&#39;&lt;sub style=&quot;border-color: var(--border-color);&quot;&gt;m&lt;/sub&gt;&lt;/b&gt;" style="rounded=0;whiteSpace=wrap;html=1;fontFamily=Helvetica;fontSize=11;fillColor=#d5e8d4;strokeColor=#82b366;" parent="1" vertex="1">
          <mxGeometry x="564" y="-466" width="46" height="34" as="geometry" />
        </mxCell>
        <mxCell id="n3hUSVVW-1aV4-CjMUfo-34" value="&lt;b&gt;&lt;font style=&quot;font-size: 18px;&quot;&gt;···&amp;nbsp;&lt;/font&gt;&lt;/b&gt;&lt;b style=&quot;border-color: var(--border-color);&quot;&gt;&lt;font style=&quot;border-color: var(--border-color); font-size: 18px;&quot;&gt;···&lt;/font&gt;&lt;/b&gt;" style="text;html=1;strokeColor=none;fillColor=none;align=center;verticalAlign=middle;whiteSpace=wrap;rounded=0;" parent="1" vertex="1">
          <mxGeometry x="498" y="-463" width="60" height="30" as="geometry" />
        </mxCell>
        <mxCell id="n3hUSVVW-1aV4-CjMUfo-35" value="&lt;b style=&quot;border-color: var(--border-color); font-size: 12px;&quot;&gt;T&lt;sub style=&quot;border-color: var(--border-color);&quot;&gt;[EOS]&lt;/sub&gt;&lt;/b&gt;" style="rounded=0;whiteSpace=wrap;html=1;fontFamily=Helvetica;fontSize=11;fillColor=#f8cecc;strokeColor=#b85450;" parent="1" vertex="1">
          <mxGeometry x="629" y="-466" width="46" height="34" as="geometry" />
        </mxCell>
        <mxCell id="9vs2swaiTJSTWxsg74ld-1" value="" style="endArrow=classic;html=1;rounded=0;strokeColor=#666666;entryX=0.5;entryY=1;entryDx=0;entryDy=0;" parent="1" target="n3hUSVVW-1aV4-CjMUfo-26" edge="1">
          <mxGeometry width="50" height="50" relative="1" as="geometry">
            <mxPoint x="338" y="-400" as="sourcePoint" />
            <mxPoint x="338.9" y="-431" as="targetPoint" />
          </mxGeometry>
        </mxCell>
        <mxCell id="9vs2swaiTJSTWxsg74ld-3" value="" style="endArrow=classic;html=1;rounded=0;strokeColor=#666666;entryX=0.5;entryY=1;entryDx=0;entryDy=0;exitX=0.529;exitY=-0.001;exitDx=0;exitDy=0;exitPerimeter=0;" parent="1" target="n3hUSVVW-1aV4-CjMUfo-32" edge="1">
          <mxGeometry width="50" height="50" relative="1" as="geometry">
            <mxPoint x="474.5" y="-400" as="sourcePoint" />
            <mxPoint x="475.5" y="-430" as="targetPoint" />
          </mxGeometry>
        </mxCell>
        <mxCell id="9vs2swaiTJSTWxsg74ld-4" value="" style="endArrow=classic;html=1;rounded=0;strokeColor=#666666;entryX=0.5;entryY=1;entryDx=0;entryDy=0;exitX=0.529;exitY=-0.001;exitDx=0;exitDy=0;exitPerimeter=0;" parent="1" target="n3hUSVVW-1aV4-CjMUfo-33" edge="1">
          <mxGeometry width="50" height="50" relative="1" as="geometry">
            <mxPoint x="586.75" y="-400" as="sourcePoint" />
            <mxPoint x="587.25" y="-431" as="targetPoint" />
          </mxGeometry>
        </mxCell>
        <mxCell id="9vs2swaiTJSTWxsg74ld-5" value="" style="endArrow=classic;html=1;rounded=0;strokeColor=#666666;exitX=0.923;exitY=0;exitDx=0;exitDy=0;exitPerimeter=0;entryX=0.5;entryY=1;entryDx=0;entryDy=0;" parent="1" source="ntA_5ywgpYa8TE1KBMGx-119" target="n3hUSVVW-1aV4-CjMUfo-35" edge="1">
          <mxGeometry width="50" height="50" relative="1" as="geometry">
            <mxPoint x="651.88" y="-399" as="sourcePoint" />
            <mxPoint x="652" y="-430" as="targetPoint" />
          </mxGeometry>
        </mxCell>
        <mxCell id="9vs2swaiTJSTWxsg74ld-41" value="" style="rounded=1;whiteSpace=wrap;html=1;fillColor=#d5e8d4;strokeColor=#82b366;gradientColor=#97d077;" parent="1" vertex="1">
          <mxGeometry x="539" y="-159" width="150" height="60" as="geometry" />
        </mxCell>
        <mxCell id="9vs2swaiTJSTWxsg74ld-40" value="" style="rounded=1;whiteSpace=wrap;html=1;fillColor=#d5e8d4;strokeColor=#82b366;gradientColor=#97d077;" parent="1" vertex="1">
          <mxGeometry x="534" y="-155" width="150" height="60" as="geometry" />
        </mxCell>
        <mxCell id="9vs2swaiTJSTWxsg74ld-6" value="" style="endArrow=classic;html=1;rounded=0;dashed=1;dashPattern=1 1;exitX=1;exitY=0.5;exitDx=0;exitDy=0;entryX=0;entryY=0.5;entryDx=0;entryDy=0;entryPerimeter=0;" parent="1" source="n3hUSVVW-1aV4-CjMUfo-3" edge="1">
          <mxGeometry width="50" height="50" relative="1" as="geometry">
            <mxPoint x="400" y="-180" as="sourcePoint" />
            <mxPoint x="506" y="-140" as="targetPoint" />
          </mxGeometry>
        </mxCell>
        <mxCell id="9vs2swaiTJSTWxsg74ld-8" value="&lt;b&gt;Scaled Dot-Product&lt;br&gt;Attention&lt;/b&gt;" style="rounded=1;whiteSpace=wrap;html=1;fillColor=#d5e8d4;strokeColor=#82b366;gradientColor=#97d077;" parent="1" vertex="1">
          <mxGeometry x="530" y="-150" width="150" height="60" as="geometry" />
        </mxCell>
        <mxCell id="9vs2swaiTJSTWxsg74ld-11" value="" style="endArrow=classic;html=1;rounded=0;strokeColor=#666666;entryX=0.5;entryY=1;entryDx=0;entryDy=0;exitX=0.506;exitY=0.001;exitDx=0;exitDy=0;exitPerimeter=0;" parent="1" source="ntA_5ywgpYa8TE1KBMGx-119" target="n3hUSVVW-1aV4-CjMUfo-31" edge="1">
          <mxGeometry width="50" height="50" relative="1" as="geometry">
            <mxPoint x="408.4" y="-400" as="sourcePoint" />
            <mxPoint x="408.4" y="-431" as="targetPoint" />
          </mxGeometry>
        </mxCell>
        <mxCell id="9vs2swaiTJSTWxsg74ld-12" value="" style="shape=curlyBracket;whiteSpace=wrap;html=1;rounded=1;labelPosition=left;verticalLabelPosition=middle;align=right;verticalAlign=middle;" parent="1" vertex="1">
          <mxGeometry x="502" y="-290" width="20" height="300" as="geometry" />
        </mxCell>
        <mxCell id="9vs2swaiTJSTWxsg74ld-13" value="" style="shape=curlyBracket;whiteSpace=wrap;html=1;rounded=1;flipH=1;labelPosition=right;verticalLabelPosition=middle;align=left;verticalAlign=middle;size=0.5;direction=east;rotation=-25;strokeColor=#666666;dashed=1;dashPattern=1 1;" parent="1" vertex="1">
          <mxGeometry x="677.63" y="-164.14" width="11.35" height="45.26" as="geometry" />
        </mxCell>
        <mxCell id="9vs2swaiTJSTWxsg74ld-15" value="h" style="text;html=1;strokeColor=none;fillColor=none;align=center;verticalAlign=middle;whiteSpace=wrap;rounded=0;fontColor=#4D4D4D;" parent="1" vertex="1">
          <mxGeometry x="682" y="-156" width="24.47" height="20" as="geometry" />
        </mxCell>
        <mxCell id="9vs2swaiTJSTWxsg74ld-17" value="V" style="text;html=1;strokeColor=none;fillColor=none;align=center;verticalAlign=middle;whiteSpace=wrap;rounded=0;" parent="1" vertex="1">
          <mxGeometry x="523" y="-7" width="44" height="20" as="geometry" />
        </mxCell>
        <mxCell id="9vs2swaiTJSTWxsg74ld-18" value="K" style="text;html=1;strokeColor=none;fillColor=none;align=center;verticalAlign=middle;whiteSpace=wrap;rounded=0;" parent="1" vertex="1">
          <mxGeometry x="581.5" y="-7" width="44" height="20" as="geometry" />
        </mxCell>
        <mxCell id="9vs2swaiTJSTWxsg74ld-19" value="Q" style="text;html=1;strokeColor=none;fillColor=none;align=center;verticalAlign=middle;whiteSpace=wrap;rounded=0;" parent="1" vertex="1">
          <mxGeometry x="643.53" y="-7" width="44" height="20" as="geometry" />
        </mxCell>
        <mxCell id="9vs2swaiTJSTWxsg74ld-22" value="" style="rounded=1;whiteSpace=wrap;html=1;fillColor=#dae8fc;strokeColor=#6c8ebf;gradientColor=#7ea6e0;" parent="1" vertex="1">
          <mxGeometry x="528" y="-58" width="45" height="20" as="geometry" />
        </mxCell>
        <mxCell id="9vs2swaiTJSTWxsg74ld-21" value="" style="rounded=1;whiteSpace=wrap;html=1;fillColor=#dae8fc;strokeColor=#6c8ebf;gradientColor=#7ea6e0;" parent="1" vertex="1">
          <mxGeometry x="524" y="-54" width="45" height="20" as="geometry" />
        </mxCell>
        <mxCell id="9vs2swaiTJSTWxsg74ld-20" value="Linear" style="rounded=1;whiteSpace=wrap;html=1;fillColor=#dae8fc;strokeColor=#6c8ebf;gradientColor=#7ea6e0;fontStyle=1" parent="1" vertex="1">
          <mxGeometry x="520" y="-50" width="45" height="20" as="geometry" />
        </mxCell>
        <mxCell id="9vs2swaiTJSTWxsg74ld-24" value="" style="rounded=1;whiteSpace=wrap;html=1;fillColor=#dae8fc;strokeColor=#6c8ebf;gradientColor=#7ea6e0;" parent="1" vertex="1">
          <mxGeometry x="588.5" y="-57" width="45" height="20" as="geometry" />
        </mxCell>
        <mxCell id="9vs2swaiTJSTWxsg74ld-25" value="" style="rounded=1;whiteSpace=wrap;html=1;fillColor=#dae8fc;strokeColor=#6c8ebf;gradientColor=#7ea6e0;" parent="1" vertex="1">
          <mxGeometry x="584.5" y="-53" width="45" height="20" as="geometry" />
        </mxCell>
        <mxCell id="9vs2swaiTJSTWxsg74ld-26" value="Linear" style="rounded=1;whiteSpace=wrap;html=1;fillColor=#dae8fc;strokeColor=#6c8ebf;gradientColor=#7ea6e0;fontStyle=1" parent="1" vertex="1">
          <mxGeometry x="580.5" y="-49" width="45" height="20" as="geometry" />
        </mxCell>
        <mxCell id="9vs2swaiTJSTWxsg74ld-28" value="" style="rounded=1;whiteSpace=wrap;html=1;fillColor=#dae8fc;strokeColor=#6c8ebf;gradientColor=#7ea6e0;" parent="1" vertex="1">
          <mxGeometry x="649.47" y="-57" width="45" height="20" as="geometry" />
        </mxCell>
        <mxCell id="9vs2swaiTJSTWxsg74ld-29" value="" style="rounded=1;whiteSpace=wrap;html=1;fillColor=#dae8fc;strokeColor=#6c8ebf;gradientColor=#7ea6e0;" parent="1" vertex="1">
          <mxGeometry x="645.47" y="-53" width="45" height="20" as="geometry" />
        </mxCell>
        <mxCell id="9vs2swaiTJSTWxsg74ld-30" value="Linear" style="rounded=1;whiteSpace=wrap;html=1;fillColor=#dae8fc;strokeColor=#6c8ebf;gradientColor=#7ea6e0;fontStyle=1" parent="1" vertex="1">
          <mxGeometry x="641.47" y="-49" width="45" height="20" as="geometry" />
        </mxCell>
        <mxCell id="9vs2swaiTJSTWxsg74ld-31" value="" style="endArrow=classic;html=1;rounded=0;entryX=0.444;entryY=1;entryDx=0;entryDy=0;entryPerimeter=0;strokeColor=#666666;" parent="1" source="9vs2swaiTJSTWxsg74ld-17" edge="1">
          <mxGeometry width="50" height="50" relative="1" as="geometry">
            <mxPoint x="544.9939393939394" y="-7" as="sourcePoint" />
            <mxPoint x="544.9799999999999" y="-30" as="targetPoint" />
          </mxGeometry>
        </mxCell>
        <mxCell id="9vs2swaiTJSTWxsg74ld-32" value="" style="endArrow=classic;html=1;rounded=0;entryX=0.5;entryY=1;entryDx=0;entryDy=0;strokeColor=#666666;exitX=0.494;exitY=0.094;exitDx=0;exitDy=0;exitPerimeter=0;" parent="1" source="9vs2swaiTJSTWxsg74ld-18" target="9vs2swaiTJSTWxsg74ld-26" edge="1">
          <mxGeometry width="50" height="50" relative="1" as="geometry">
            <mxPoint x="604.86" y="-5" as="sourcePoint" />
            <mxPoint x="604.8399999999999" y="-28" as="targetPoint" />
          </mxGeometry>
        </mxCell>
        <mxCell id="9vs2swaiTJSTWxsg74ld-33" value="" style="endArrow=classic;html=1;rounded=0;entryX=0.522;entryY=0.945;entryDx=0;entryDy=0;strokeColor=#666666;exitX=0.48;exitY=0.052;exitDx=0;exitDy=0;exitPerimeter=0;entryPerimeter=0;" parent="1" source="9vs2swaiTJSTWxsg74ld-19" target="9vs2swaiTJSTWxsg74ld-30" edge="1">
          <mxGeometry width="50" height="50" relative="1" as="geometry">
            <mxPoint x="665.42" y="-5" as="sourcePoint" />
            <mxPoint x="665.42" y="-29" as="targetPoint" />
          </mxGeometry>
        </mxCell>
        <mxCell id="9vs2swaiTJSTWxsg74ld-36" value="" style="endArrow=classic;html=1;rounded=0;entryX=0.136;entryY=1.004;entryDx=0;entryDy=0;entryPerimeter=0;strokeColor=#666666;" parent="1" target="9vs2swaiTJSTWxsg74ld-8" edge="1">
          <mxGeometry width="50" height="50" relative="1" as="geometry">
            <mxPoint x="550.43" y="-58" as="sourcePoint" />
            <mxPoint x="550.4099999999999" y="-81" as="targetPoint" />
          </mxGeometry>
        </mxCell>
        <mxCell id="9vs2swaiTJSTWxsg74ld-37" value="" style="endArrow=classic;html=1;rounded=0;entryX=0.541;entryY=0.997;entryDx=0;entryDy=0;entryPerimeter=0;strokeColor=#666666;" parent="1" target="9vs2swaiTJSTWxsg74ld-8" edge="1">
          <mxGeometry width="50" height="50" relative="1" as="geometry">
            <mxPoint x="611.2099999999999" y="-57" as="sourcePoint" />
            <mxPoint x="610.78" y="-95" as="targetPoint" />
          </mxGeometry>
        </mxCell>
        <mxCell id="9vs2swaiTJSTWxsg74ld-38" value="" style="endArrow=classic;html=1;rounded=0;entryX=0.948;entryY=1.001;entryDx=0;entryDy=0;entryPerimeter=0;strokeColor=#666666;" parent="1" target="9vs2swaiTJSTWxsg74ld-8" edge="1">
          <mxGeometry width="50" height="50" relative="1" as="geometry">
            <mxPoint x="672.18" y="-57" as="sourcePoint" />
            <mxPoint x="671.75" y="-95" as="targetPoint" />
          </mxGeometry>
        </mxCell>
        <mxCell id="9vs2swaiTJSTWxsg74ld-42" value="" style="endArrow=classic;html=1;rounded=0;fontColor=#666666;entryX=0.5;entryY=1;entryDx=0;entryDy=0;exitX=0.472;exitY=0.002;exitDx=0;exitDy=0;exitPerimeter=0;strokeColor=#666666;" parent="1" source="9vs2swaiTJSTWxsg74ld-41" target="9vs2swaiTJSTWxsg74ld-43" edge="1">
          <mxGeometry width="50" height="50" relative="1" as="geometry">
            <mxPoint x="610" y="-159" as="sourcePoint" />
            <mxPoint x="660" y="-209" as="targetPoint" />
          </mxGeometry>
        </mxCell>
        <mxCell id="9vs2swaiTJSTWxsg74ld-43" value="&lt;b&gt;Concat&lt;/b&gt;" style="rounded=1;whiteSpace=wrap;html=1;fillColor=#fff2cc;strokeColor=#d6b656;gradientColor=#a6f2f2;gradientDirection=east;opacity=60;" parent="1" vertex="1">
          <mxGeometry x="570" y="-210" width="80" height="30" as="geometry" />
        </mxCell>
        <mxCell id="9vs2swaiTJSTWxsg74ld-44" value="" style="endArrow=classic;html=1;rounded=0;fontColor=#666666;entryX=0.5;entryY=1;entryDx=0;entryDy=0;exitX=0.472;exitY=0.002;exitDx=0;exitDy=0;exitPerimeter=0;strokeColor=#666666;" parent="1" edge="1">
          <mxGeometry width="50" height="50" relative="1" as="geometry">
            <mxPoint x="610.73" y="-210" as="sourcePoint" />
            <mxPoint x="610.73" y="-231" as="targetPoint" />
          </mxGeometry>
        </mxCell>
        <mxCell id="9vs2swaiTJSTWxsg74ld-46" value="Linear" style="rounded=1;whiteSpace=wrap;html=1;fillColor=#dae8fc;strokeColor=#6c8ebf;gradientColor=#7ea6e0;fontStyle=1" parent="1" vertex="1">
          <mxGeometry x="587.5" y="-251" width="45" height="20" as="geometry" />
        </mxCell>
        <mxCell id="9vs2swaiTJSTWxsg74ld-47" value="" style="endArrow=classic;html=1;rounded=0;fontColor=#666666;entryX=0.5;entryY=1;entryDx=0;entryDy=0;exitX=0.472;exitY=0.002;exitDx=0;exitDy=0;exitPerimeter=0;strokeColor=#666666;" parent="1" edge="1">
          <mxGeometry width="50" height="50" relative="1" as="geometry">
            <mxPoint x="610.73" y="-251" as="sourcePoint" />
            <mxPoint x="610.73" y="-272" as="targetPoint" />
          </mxGeometry>
        </mxCell>
        <mxCell id="9vs2swaiTJSTWxsg74ld-49" value="Multi-Head Attention" style="text;html=1;strokeColor=none;fillColor=none;align=center;verticalAlign=middle;whiteSpace=wrap;rounded=0;fontStyle=1" parent="1" vertex="1">
          <mxGeometry x="542.25" y="-295" width="132.75" height="30" as="geometry" />
        </mxCell>
      </root>
    </mxGraphModel>
  </diagram>
</mxfile>
